STARTFONT 2.1
FONT -Monotype-Nimrod-Bold-R-Normal--24-240-75-75-P-152-iso8859-5
SIZE 24 75 75
FONTBOUNDINGBOX 32 31 -2 -6

STARTPROPERTIES 24
FOUNDRY "Monotype"
FAMILY_NAME "Nimrod"
WEIGHT_NAME "Bold"
SLANT "R"
SETWIDTH_NAME "Normal"
ADD_STYLE_NAME ""
PIXEL_SIZE 24
POINT_SIZE 240
RESOLUTION_X 75
RESOLUTION_Y 75
SPACING "P"
AVERAGE_WIDTH 152
CHARSET_REGISTRY "iso8859"
CHARSET_ENCODING "5"
FACE_NAME "Nimrod Bold ISO Latin Cyrillic"
_DEC_DEVICE_FONTNAMES "PS=nimrod-b-latcyrillic"
COPYRIGHT "Copyright (c) 1993 Monotype Typography Ltd."
CAP_HEIGHT 22
X_HEIGHT 16
WEIGHT 10
QUAD_WIDTH 18
DEFAULT_CHAR 160
FONT_DESCENT 6
FONT_ASCENT 25
ENDPROPERTIES

CHARS 191

STARTCHAR space
ENCODING 32
SWIDTH 250 0
DWIDTH 6 0
BBX 0 0 0 0
BITMAP
ENDCHAR

STARTCHAR exclam
ENCODING 33
SWIDTH 323 0
DWIDTH 8 0
BBX 4 19 2 0
BITMAP
70
F0
F0
F0
F0
F0
E0
E0
60
60
40
40
40
00
00
F0
F0
F0
70
ENDCHAR

STARTCHAR quotedbl
ENCODING 34
SWIDTH 552 0
DWIDTH 14 0
BBX 10 8 2 9
BITMAP
6180
F3C0
F3C0
F3C0
6180
6180
6180
2080
ENDCHAR

STARTCHAR numbersign
ENCODING 35
SWIDTH 667 0
DWIDTH 17 0
BBX 15 18 1 -1
BITMAP
0608
0418
0C18
0C18
0C10
FFFE
FFFE
1830
1830
1820
1060
FFFE
FFFE
3060
3040
30C0
20C0
60C0
ENDCHAR

STARTCHAR dollar
ENCODING 36
SWIDTH 542 0
DWIDTH 14 0
BBX 12 22 1 -3
BITMAP
0400
0F00
3FC0
64E0
E4E0
E4E0
F4E0
7C00
7E00
3F80
1FC0
07E0
05F0
64F0
F470
E470
E460
64E0
3F80
0400
0400
0400
ENDCHAR

STARTCHAR percent
ENCODING 37
SWIDTH 1000 0
DWIDTH 25 0
BBX 19 18 3 0
BITMAP
3C0200
660400
E70C00
E70800
E71800
E71000
E73000
E72000
666000
3C4780
008CC0
009CE0
011CE0
031CE0
021CE0
061CE0
040CC0
0C0780
ENDCHAR

STARTCHAR ampersand
ENCODING 38
SWIDTH 865 0
DWIDTH 22 0
BBX 20 19 1 0
BITMAP
03F000
073800
0E1C00
0E1C00
0E1800
0F3800
07E000
078000
07C7F0
3BC1C0
71E180
F1F100
F0F300
F0FA00
F07C30
F83E30
7C3FE0
3FEFE0
1F0380
ENDCHAR

STARTCHAR quoteright
ENCODING 39
SWIDTH 323 0
DWIDTH 8 0
BBX 5 8 2 11
BITMAP
70
F8
F8
78
10
30
E0
40
ENDCHAR

STARTCHAR parenleft
ENCODING 40
SWIDTH 385 0
DWIDTH 10 0
BBX 8 23 1 -4
BITMAP
03
06
0C
1C
38
38
78
70
F0
F0
F0
F0
F0
F0
F0
70
78
38
38
1C
0C
06
03
ENDCHAR

STARTCHAR parenright
ENCODING 41
SWIDTH 385 0
DWIDTH 10 0
BBX 8 23 1 -4
BITMAP
C0
60
30
38
1C
1C
1E
0E
0F
0F
0F
0F
0F
0F
0F
0E
1E
1C
1C
38
30
60
C0
ENDCHAR

STARTCHAR asterisk
ENCODING 42
SWIDTH 552 0
DWIDTH 14 0
BBX 13 11 0 8
BITMAP
0700
0700
0700
7270
FAF8
7FF0
0600
0D80
3DE0
3DE0
18C0
ENDCHAR

STARTCHAR plus
ENCODING 43
SWIDTH 667 0
DWIDTH 17 0
BBX 14 14 1 1
BITMAP
0300
0300
0300
0300
0300
0300
FFFC
FFFC
0300
0300
0300
0300
0300
0300
ENDCHAR

STARTCHAR comma
ENCODING 44
SWIDTH 323 0
DWIDTH 8 0
BBX 5 8 2 -4
BITMAP
70
F8
F8
78
10
30
E0
40
ENDCHAR

STARTCHAR minus
ENCODING 45
SWIDTH 667 0
DWIDTH 17 0
BBX 13 2 2 7
BITMAP
FFF8
FFF8
ENDCHAR

STARTCHAR period
ENCODING 46
SWIDTH 323 0
DWIDTH 8 0
BBX 4 4 2 0
BITMAP
F0
F0
F0
70
ENDCHAR

STARTCHAR slash
ENCODING 47
SWIDTH 552 0
DWIDTH 14 0
BBX 12 20 1 0
BITMAP
0030
0060
0060
00C0
00C0
0180
0180
0300
0300
0600
0600
0C00
0C00
1800
1800
3000
3000
6000
6000
C000
ENDCHAR

STARTCHAR zero
ENCODING 48
SWIDTH 594 0
DWIDTH 15 0
BBX 13 18 1 0
BITMAP
0F80
38E0
38E0
7070
7070
F078
F078
F078
F078
F078
F078
F078
F078
7070
7070
38E0
19E0
0F80
ENDCHAR

STARTCHAR one
ENCODING 49
SWIDTH 594 0
DWIDTH 15 0
BBX 10 18 3 0
BITMAP
0200
3E00
FE00
1E00
1E00
1E00
1E00
1E00
1E00
1E00
1E00
1E00
1E00
1E00
1E00
1E00
1E00
FFC0
ENDCHAR

STARTCHAR two
ENCODING 50
SWIDTH 594 0
DWIDTH 15 0
BBX 13 18 0 0
BITMAP
0FE0
39F0
30F8
7078
7878
7878
3878
00F0
00E0
01C0
0380
0700
0E08
1808
3018
3FF8
7FF8
FFF8
ENDCHAR

STARTCHAR three
ENCODING 51
SWIDTH 594 0
DWIDTH 15 0
BBX 13 18 1 0
BITMAP
1FC0
31E0
70F0
70F0
70F0
30F0
00E0
0140
1F80
00E0
0070
2078
F078
F078
E078
60F0
71E0
1FC0
ENDCHAR

STARTCHAR four
ENCODING 52
SWIDTH 594 0
DWIDTH 15 0
BBX 13 18 1 0
BITMAP
0060
00E0
01E0
03E0
02E0
05E0
0DE0
19E0
31E0
21E0
41E0
C1E0
FFF8
01E0
01E0
01E0
01E0
0FF8
ENDCHAR

STARTCHAR five
ENCODING 53
SWIDTH 594 0
DWIDTH 15 0
BBX 13 18 1 0
BITMAP
3FF0
3FF0
3FF0
2000
2000
2000
2780
2FE0
60F0
00F0
0078
6078
F078
F078
E078
60F0
71E0
1F80
ENDCHAR

STARTCHAR six
ENCODING 54
SWIDTH 594 0
DWIDTH 15 0
BBX 13 18 1 0
BITMAP
0FE0
1C70
3870
7870
7070
7000
F000
F3C0
F7F0
F8F0
F078
F078
F078
7078
7078
78F0
38E0
0FC0
ENDCHAR

STARTCHAR seven
ENCODING 55
SWIDTH 594 0
DWIDTH 15 0
BBX 13 17 1 1
BITMAP
7FF8
7FF0
7FF0
6020
4060
C040
00C0
01C0
0180
0380
0380
0700
0700
0F00
0F00
0F00
0F00
ENDCHAR

STARTCHAR eight
ENCODING 56
SWIDTH 594 0
DWIDTH 15 0
BBX 12 18 1 0
BITMAP
3F80
79E0
70F0
F0F0
F0F0
F0F0
70E0
3940
0F80
79E0
70F0
F0F0
F0F0
F0F0
F0F0
70E0
79E0
1F80
ENDCHAR

STARTCHAR nine
ENCODING 57
SWIDTH 594 0
DWIDTH 15 0
BBX 13 18 1 0
BITMAP
1F80
38E0
7870
F070
F070
F078
F078
F878
78F8
7FB8
1E78
0078
0070
7070
70F0
70E0
71C0
1F00
ENDCHAR

STARTCHAR colon
ENCODING 58
SWIDTH 323 0
DWIDTH 8 0
BBX 4 14 2 0
BITMAP
F0
F0
F0
F0
00
00
00
00
00
00
F0
F0
F0
70
ENDCHAR

STARTCHAR semicolon
ENCODING 59
SWIDTH 323 0
DWIDTH 8 0
BBX 5 18 2 -4
BITMAP
F0
F0
F0
F0
00
00
00
00
00
00
70
F8
F8
78
10
30
E0
40
ENDCHAR

STARTCHAR less
ENCODING 60
SWIDTH 667 0
DWIDTH 17 0
BBX 13 13 2 2
BITMAP
0008
0038
00F8
07C0
1F00
7C00
C000
F000
7C00
0F80
03E0
0078
0018
ENDCHAR

STARTCHAR equal
ENCODING 61
SWIDTH 667 0
DWIDTH 17 0
BBX 13 8 2 4
BITMAP
FFF8
FFF8
0000
0000
0000
0000
FFF8
FFF8
ENDCHAR

STARTCHAR greater
ENCODING 62
SWIDTH 667 0
DWIDTH 17 0
BBX 13 13 2 2
BITMAP
8000
C000
F800
3E00
0780
01F0
0078
0078
03E0
0F80
7C00
F000
C000
ENDCHAR

STARTCHAR question
ENCODING 63
SWIDTH 500 0
DWIDTH 13 0
BBX 11 19 1 0
BITMAP
3F00
63C0
E3E0
F1E0
F1E0
63E0
03C0
03C0
0700
0E00
0C00
0800
0800
0000
0000
1E00
1E00
1E00
0E00
ENDCHAR

STARTCHAR at
ENCODING 64
SWIDTH 927 0
DWIDTH 23 0
BBX 22 23 1 -6
BITMAP
00FF00
0300C0
0C0020
180010
300010
603B88
60EB08
41C708
C18708
838E08
838E08
870E08
871E10
872C10
C73C20
47DCC4
438F08
200008
200010
100020
0C00C0
038300
007C00
ENDCHAR

STARTCHAR A
ENCODING 65
SWIDTH 854 0
DWIDTH 21 0
BBX 20 19 1 0
BITMAP
006000
00E000
00F000
00F000
01F800
017800
037800
037C00
063C00
063E00
041E00
0C1E00
081F00
1FFF00
180F80
300780
300780
7807C0
FE1FF0
ENDCHAR

STARTCHAR B
ENCODING 66
SWIDTH 792 0
DWIDTH 20 0
BBX 18 19 1 0
BITMAP
FFFE00
1E1F00
1E0F80
1E0780
1E0780
1E0780
1E0780
1E0F00
1E1600
1FF800
1E1F00
1E0780
1E07C0
1E07C0
1E07C0
1E07C0
1E0780
1E1F00
FFFE00
ENDCHAR

STARTCHAR C
ENCODING 67
SWIDTH 750 0
DWIDTH 19 0
BBX 17 19 1 0
BITMAP
03FC00
0F0F00
1E0700
3C0300
7C0300
780100
780100
F80000
F80000
F80000
F80000
F80000
F80180
780100
7C0300
3E0700
1F0E00
0FFC00
03F000
ENDCHAR

STARTCHAR D
ENCODING 68
SWIDTH 823 0
DWIDTH 21 0
BBX 19 19 0 0
BITMAP
FFFC00
1E1F00
1E0780
1E0780
1E03C0
1E03C0
1E03E0
1E03E0
1E03E0
1E03E0
1E03E0
1E03E0
1E03E0
1E03C0
1E03C0
1E0780
1E0F80
1F1E00
FFFC00
ENDCHAR

STARTCHAR E
ENCODING 69
SWIDTH 750 0
DWIDTH 19 0
BBX 17 19 0 0
BITMAP
FFFF00
1E0F00
1E0300
1E0300
1E0100
1E1100
1E1100
1E3000
1E7000
1FF000
1E7000
1E3000
1E1180
1E1180
1E0180
1E0180
1E0380
1E0F80
FFFF80
ENDCHAR

STARTCHAR F
ENCODING 70
SWIDTH 698 0
DWIDTH 17 0
BBX 16 19 0 0
BITMAP
FFFF
1E0F
1E03
1E03
1E01
1E11
1E11
1E30
1E70
1FF0
1E70
1E30
1E10
1E10
1E00
1E00
1E00
1E00
FFE0
ENDCHAR

STARTCHAR G
ENCODING 71
SWIDTH 854 0
DWIDTH 21 0
BBX 19 19 1 0
BITMAP
03FE00
0F0F00
1E0700
3C0300
3C0180
780180
780180
F80000
F80000
F80000
F83FE0
F83FE0
F80780
780780
7C0780
3C0780
1E0780
0F0F00
03FC00
ENDCHAR

STARTCHAR H
ENCODING 72
SWIDTH 865 0
DWIDTH 22 0
BBX 21 19 0 0
BITMAP
FFDFF8
1E03C0
1E03C0
1E03C0
1E03C0
1E03C0
1E03C0
1E03C0
1FFFC0
1FFFC0
1E03C0
1E03C0
1E03C0
1E03C0
1E03C0
1E03C0
1E03C0
1E03C0
FFDFF8
ENDCHAR

STARTCHAR I
ENCODING 73
SWIDTH 448 0
DWIDTH 11 0
BBX 10 19 1 0
BITMAP
FFC0
1E00
1E00
1E00
1E00
1E00
1E00
1E00
1E00
1E00
1E00
1E00
1E00
1E00
1E00
1E00
1E00
1E00
FFC0
ENDCHAR

STARTCHAR J
ENCODING 74
SWIDTH 635 0
DWIDTH 16 0
BBX 15 19 1 0
BITMAP
07FE
00F0
00F0
00F0
00F0
00F0
00F0
00F0
00F0
00F0
00F0
20F0
70F0
F8F0
F8F0
F0F0
60E0
71E0
1F80
ENDCHAR

STARTCHAR K
ENCODING 75
SWIDTH 854 0
DWIDTH 21 0
BBX 21 19 0 0
BITMAP
FFDFF0
1E07C0
1E0300
1E0600
1E0C00
1E1800
1E3000
1E7800
1EF800
1EFC00
1FBC00
1F3E00
1E1F00
1E1F00
1E0F80
1E0780
1E07C0
1E07E0
FFDFF8
ENDCHAR

STARTCHAR L
ENCODING 76
SWIDTH 708 0
DWIDTH 18 0
BBX 17 19 0 0
BITMAP
FFE000
1E0000
1E0000
1E0000
1E0000
1E0000
1E0000
1E0000
1E0000
1E0000
1E0000
1E0000
1E0180
1E0180
1E0180
1E0380
1E0300
1E0F00
FFFF00
ENDCHAR

STARTCHAR M
ENCODING 77
SWIDTH 1052 0
DWIDTH 26 0
BBX 25 19 1 0
BITMAP
FF00FF80
3700DC00
3780BC00
3781BC00
3781BC00
33C13C00
33C33C00
33E33C00
31E23C00
31E63C00
31F63C00
30F43C00
30FC3C00
30FC3C00
30783C00
30783C00
30383C00
78303C00
FE31FF80
ENDCHAR

STARTCHAR N
ENCODING 78
SWIDTH 833 0
DWIDTH 21 0
BBX 19 19 1 0
BITMAP
FC0FE0
3E03C0
3F0180
3F0180
378180
37C180
33E180
33E180
31F180
30F980
307D80
307D80
303F80
301F80
300F80
300F80
300780
780380
FE0380
ENDCHAR

STARTCHAR O
ENCODING 79
SWIDTH 823 0
DWIDTH 21 0
BBX 18 19 1 0
BITMAP
07F800
0F3C00
1C0E00
3C0F00
780780
780780
780780
F807C0
F807C0
F807C0
F807C0
F807C0
7807C0
780780
780780
3C0F00
1C0E00
0F3C00
07F800
ENDCHAR

STARTCHAR P
ENCODING 80
SWIDTH 729 0
DWIDTH 18 0
BBX 17 19 1 0
BITMAP
FFFC00
1E3E00
1E0F00
1E0F80
1E0F80
1E0F80
1E0F80
1E0F00
1E3E00
1FFC00
1E0000
1E0000
1E0000
1E0000
1E0000
1E0000
1E0000
3E0000
FFC000
ENDCHAR

STARTCHAR Q
ENCODING 81
SWIDTH 823 0
DWIDTH 21 0
BBX 20 22 1 -3
BITMAP
07F800
0F3C00
1C0E00
3C0F00
780780
780780
780780
F807C0
F807C0
F807C0
F807C0
F9C7C0
FBE7C0
7C7780
7C3780
3C3F00
3C3F00
1E1C00
07FC00
000E00
000780
0003F0
ENDCHAR

STARTCHAR R
ENCODING 82
SWIDTH 802 0
DWIDTH 20 0
BBX 19 19 0 0
BITMAP
FFFC00
1E1F00
1E0F00
1E0F80
1E0F80
1E0F80
1E0F00
1E0F00
1E1E00
1FF000
1E3C00
1E3C00
1E1E00
1E1E00
1E0F00
1E0F00
1E0F80
1E0780
FFC7E0
ENDCHAR

STARTCHAR S
ENCODING 83
SWIDTH 646 0
DWIDTH 16 0
BBX 14 19 1 0
BITMAP
1FE0
3878
7038
F018
F018
F808
FC00
7F00
3FE0
1FF0
07F8
01FC
C07C
C03C
C03C
C03C
E078
F8F0
3FC0
ENDCHAR

STARTCHAR T
ENCODING 84
SWIDTH 729 0
DWIDTH 18 0
BBX 17 19 1 0
BITMAP
FFFF00
F3EF00
C3C300
C3C300
83C100
83C180
83C180
03C000
03C000
03C000
03C000
03C000
03C000
03C000
03C000
03C000
03C000
03C000
1FF800
ENDCHAR

STARTCHAR U
ENCODING 85
SWIDTH 802 0
DWIDTH 20 0
BBX 19 19 0 0
BITMAP
FFCFE0
1E03C0
1E0180
1E0180
1E0180
1E0180
1E0180
1E0180
1E0180
1E0180
1E0180
1E0180
1E0180
1E0180
1E0180
1F0300
0F0700
07FE00
01F000
ENDCHAR

STARTCHAR V
ENCODING 86
SWIDTH 823 0
DWIDTH 21 0
BBX 19 19 1 0
BITMAP
FF8FE0
7E03C0
3C0180
3E0100
1E0300
1F0300
0F0600
0F0600
0F8400
078C00
07CC00
03D800
03D800
01F000
01F000
01E000
00E000
00E000
004000
ENDCHAR

STARTCHAR W
ENCODING 87
SWIDTH 1104 0
DWIDTH 28 0
BBX 26 19 1 0
BITMAP
FE7FCFC0
7C1F0380
7C1F0300
3C0F0300
3C0F0200
1E1F8600
1E1B8600
1E178400
0F33CC00
0F33CC00
0F63C800
07E1F800
07C1F800
07C1F000
03C0F000
0380E000
0380E000
01806000
01004000
ENDCHAR

STARTCHAR X
ENCODING 88
SWIDTH 802 0
DWIDTH 20 0
BBX 19 19 1 0
BITMAP
FF9FC0
7E0780
3E0600
3E0600
1F0C00
0F9800
07F000
07E000
03E000
01F000
01F000
03F800
067C00
0E7C00
0C3E00
181F00
380F80
781F80
FE3FE0
ENDCHAR

STARTCHAR Y
ENCODING 89
SWIDTH 792 0
DWIDTH 20 0
BBX 19 19 0 0
BITMAP
FF87E0
3E03C0
3E0180
1F0300
0F8300
0F8600
07C400
03EC00
03F800
01F800
00F000
00F000
00F000
00F000
00F000
00F000
00F000
00F000
07FE00
ENDCHAR

STARTCHAR Z
ENCODING 90
SWIDTH 667 0
DWIDTH 17 0
BBX 15 19 1 0
BITMAP
7FFE
783E
607C
60F8
C0F8
C1F0
01E0
03E0
07C0
07C0
0F80
0F00
1F06
3E06
3E06
7C0E
780E
F83C
FFFC
ENDCHAR

STARTCHAR bracketleft
ENCODING 91
SWIDTH 396 0
DWIDTH 10 0
BBX 7 22 2 -3
BITMAP
FE
F0
F0
F0
F0
F0
F0
F0
F0
F0
F0
F0
F0
F0
F0
F0
F0
F0
F0
F0
F0
FE
ENDCHAR

STARTCHAR backslash
ENCODING 92
SWIDTH 552 0
DWIDTH 14 0
BBX 12 20 1 0
BITMAP
C000
6000
6000
3000
3000
1800
1800
0C00
0C00
0600
0600
0300
0300
0180
0180
00C0
00C0
0060
0060
0030
ENDCHAR

STARTCHAR bracketright
ENCODING 93
SWIDTH 396 0
DWIDTH 10 0
BBX 7 22 1 -3
BITMAP
FE
1E
1E
1E
1E
1E
1E
1E
1E
1E
1E
1E
1E
1E
1E
1E
1E
1E
1E
1E
1E
FE
ENDCHAR

STARTCHAR asciicircum
ENCODING 94
SWIDTH 583 0
DWIDTH 15 0
BBX 11 9 2 8
BITMAP
0400
0E00
1E00
1B00
3300
3180
6180
40C0
C060
ENDCHAR

STARTCHAR underscore
ENCODING 95
SWIDTH 500 0
DWIDTH 13 0
BBX 13 2 0 -6
BITMAP
FFF8
FFF8
ENDCHAR

STARTCHAR quoteleft
ENCODING 96
SWIDTH 323 0
DWIDTH 8 0
BBX 5 8 2 11
BITMAP
18
30
60
40
F0
F8
F8
70
ENDCHAR

STARTCHAR a
ENCODING 97
SWIDTH 615 0
DWIDTH 15 0
BBX 14 14 1 0
BITMAP
1FC0
39E0
70F0
70F0
70F0
00F0
1FF0
7CF0
F0F0
F0F0
F0F0
F1F0
7F7C
3C38
ENDCHAR

STARTCHAR b
ENCODING 98
SWIDTH 646 0
DWIDTH 16 0
BBX 15 19 0 0
BITMAP
FC00
3C00
3C00
3C00
3C00
3CF0
3DF8
3E3C
3C3C
3C1E
3C1E
3C1E
3C1E
3C1E
3C1E
3C1C
3C3C
3E78
33F0
ENDCHAR

STARTCHAR c
ENCODING 99
SWIDTH 542 0
DWIDTH 14 0
BBX 12 14 1 0
BITMAP
1FC0
3CE0
7870
70F0
F0E0
F000
F000
F000
F000
F000
7830
7860
3FC0
0F80
ENDCHAR

STARTCHAR d
ENCODING 100
SWIDTH 646 0
DWIDTH 16 0
BBX 15 19 1 0
BITMAP
03F8
0078
0078
0078
0078
1E78
3FB8
78F8
7878
F078
F078
F078
F078
F078
F078
7878
78F8
3F7E
1E3E
ENDCHAR

STARTCHAR e
ENCODING 101
SWIDTH 562 0
DWIDTH 14 0
BBX 13 14 1 0
BITMAP
1F80
38E0
78E0
7070
F070
F070
FFF8
F000
F000
F000
7830
7860
3FC0
0F00
ENDCHAR

STARTCHAR f
ENCODING 102
SWIDTH 406 0
DWIDTH 10 0
BBX 12 19 1 0
BITMAP
07E0
1CF0
1C70
3C20
3C00
3C00
FF80
3C00
3C00
3C00
3C00
3C00
3C00
3C00
3C00
3C00
3C00
3C00
FF80
ENDCHAR

STARTCHAR g
ENCODING 103
SWIDTH 604 0
DWIDTH 15 0
BBX 14 18 1 -4
BITMAP
1FFC
79E8
F0F0
F0F0
F0F0
70F0
09E0
3F80
6000
E000
FFE0
7FF0
1FF8
7078
E038
E030
7070
3FC0
ENDCHAR

STARTCHAR h
ENCODING 104
SWIDTH 698 0
DWIDTH 17 0
BBX 16 20 1 0
BITMAP
1C00
FC00
3C00
3C00
3C00
3C00
3CF0
3DF8
3F3C
3C3C
3C3C
3C3C
3C3C
3C3C
3C3C
3C3C
3C3C
3C3C
3C3C
FE7F
ENDCHAR

STARTCHAR i
ENCODING 105
SWIDTH 385 0
DWIDTH 10 0
BBX 8 19 1 0
BITMAP
30
78
78
30
00
FC
FC
3C
3C
3C
3C
3C
3C
3C
3C
3C
3C
3C
FF
ENDCHAR

STARTCHAR j
ENCODING 106
SWIDTH 375 0
DWIDTH 9 0
BBX 9 23 -2 -4
BITMAP
0300
0780
0780
0300
0000
1F80
1F80
0780
0780
0780
0780
0780
0780
0780
0780
0780
0780
0780
0780
0700
E700
F600
7C00
ENDCHAR

STARTCHAR k
ENCODING 107
SWIDTH 698 0
DWIDTH 17 0
BBX 17 20 1 0
BITMAP
FC0000
FC0000
3C0000
3C0000
3C0000
3C0000
3C7F00
3C1800
3C3000
3C6000
3CC000
3DE000
3FF000
3CF000
3CF800
3C7800
3C3C00
3C3C00
3C3E00
FF7F80
ENDCHAR

STARTCHAR l
ENCODING 108
SWIDTH 385 0
DWIDTH 10 0
BBX 8 19 1 0
BITMAP
FC
FC
3C
3C
3C
3C
3C
3C
3C
3C
3C
3C
3C
3C
3C
3C
3C
3C
FF
ENDCHAR

STARTCHAR m
ENCODING 109
SWIDTH 1000 0
DWIDTH 25 0
BBX 24 14 1 0
BITMAP
FCF8F8
7DF9F8
3F7F3C
3C3C3C
3C3C3C
3C3C3C
3C3C3C
3C3C3C
3C3C3C
3C3C3C
3C3C3C
3C3C3C
3C3C3C
FEFEFF
ENDCHAR

STARTCHAR n
ENCODING 110
SWIDTH 698 0
DWIDTH 17 0
BBX 16 14 1 0
BITMAP
FCF0
7DF8
3F3C
3C3C
3C3C
3C3C
3C3C
3C3C
3C3C
3C3C
3C3C
3C3C
3C3C
FE7F
ENDCHAR

STARTCHAR o
ENCODING 111
SWIDTH 615 0
DWIDTH 15 0
BBX 14 14 1 0
BITMAP
0FC0
3CF0
7878
7038
F03C
F03C
F03C
F03C
F03C
F03C
7838
7878
3CF0
0FC0
ENDCHAR

STARTCHAR p
ENCODING 112
SWIDTH 646 0
DWIDTH 16 0
BBX 15 18 0 -4
BITMAP
F8F0
FDF8
3E3C
3C3C
3C1E
3C1E
3C1E
3C1E
3C1E
3C1E
3C3C
3E3C
3DF8
3CF0
3C00
3C00
3C00
FF80
ENDCHAR

STARTCHAR q
ENCODING 113
SWIDTH 646 0
DWIDTH 16 0
BBX 15 18 1 -4
BITMAP
1F98
3CF8
7878
7078
F078
F078
F078
F078
F078
F078
7878
78F8
3FB8
1E78
0078
0078
0078
03FE
ENDCHAR

STARTCHAR r
ENCODING 114
SWIDTH 542 0
DWIDTH 14 0
BBX 13 14 0 0
BITMAP
F870
7DF8
3F38
3E38
3C00
3C00
3C00
3C00
3C00
3C00
3C00
3C00
3C00
FF80
ENDCHAR

STARTCHAR s
ENCODING 115
SWIDTH 510 0
DWIDTH 13 0
BBX 11 14 1 0
BITMAP
3F80
71C0
E0C0
E040
F000
FE00
7F80
3FC0
0FE0
81E0
C0E0
C0E0
F1C0
7F80
ENDCHAR

STARTCHAR t
ENCODING 116
SWIDTH 427 0
DWIDTH 11 0
BBX 10 18 0 0
BITMAP
0C00
0C00
0C00
1C00
3C00
FF80
3C00
3C00
3C00
3C00
3C00
3C00
3C00
3C00
3C00
3C40
1FC0
0F00
ENDCHAR

STARTCHAR u
ENCODING 117
SWIDTH 698 0
DWIDTH 17 0
BBX 16 14 1 0
BITMAP
FCFC
FCFC
3C3C
3C3C
3C3C
3C3C
3C3C
3C3C
3C3C
3C3C
3C3C
3C7C
1FBE
0F1F
ENDCHAR

STARTCHAR v
ENCODING 118
SWIDTH 635 0
DWIDTH 16 0
BBX 14 14 1 0
BITMAP
FE7C
7C18
3810
3C10
3C20
1E20
1E60
0E40
0FC0
0F80
0780
0780
0300
0300
ENDCHAR

STARTCHAR w
ENCODING 119
SWIDTH 906 0
DWIDTH 23 0
BBX 22 14 0 0
BITMAP
FEFE7C
3C3C38
3C3C10
1C1C30
1E3E20
1E2E20
0E6E60
0F4F40
074F40
07C7C0
078780
038380
038380
010300
ENDCHAR

STARTCHAR x
ENCODING 120
SWIDTH 646 0
DWIDTH 16 0
BBX 16 14 0 0
BITMAP
7F3E
3E0C
1E18
1F30
0FE0
07C0
03C0
03E0
03F0
04F0
0878
183C
387E
FCFF
ENDCHAR

STARTCHAR y
ENCODING 121
SWIDTH 635 0
DWIDTH 16 0
BBX 15 18 0 -4
BITMAP
FF3E
7C1C
3C08
1E18
1E10
0F30
0F20
0F20
07C0
07C0
03C0
0380
0180
0100
7100
7200
7600
3800
ENDCHAR

STARTCHAR z
ENCODING 122
SWIDTH 521 0
DWIDTH 13 0
BBX 11 14 1 0
BITMAP
FFE0
E1E0
C3C0
C780
8780
0F00
0F00
1E00
3C00
3C20
7820
7860
F0E0
FFE0
ENDCHAR

STARTCHAR braceleft
ENCODING 123
SWIDTH 396 0
DWIDTH 10 0
BBX 6 22 2 -4
BITMAP
1C
30
70
70
30
38
38
38
30
60
80
60
30
38
38
38
70
70
70
30
18
04
ENDCHAR

STARTCHAR bar
ENCODING 124
SWIDTH 542 0
DWIDTH 14 0
BBX 2 20 6 0
BITMAP
C0
C0
C0
C0
C0
C0
C0
C0
C0
C0
C0
C0
C0
C0
C0
C0
C0
C0
C0
C0
ENDCHAR

STARTCHAR braceright
ENCODING 125
SWIDTH 396 0
DWIDTH 10 0
BBX 6 22 2 -4
BITMAP
E0
30
38
38
38
70
70
70
30
18
04
18
30
30
30
38
38
38
38
30
60
80
ENDCHAR

STARTCHAR asciitilde
ENCODING 126
SWIDTH 667 0
DWIDTH 17 0
BBX 13 4 2 6
BITMAP
7808
FF08
87F0
80E0
ENDCHAR

STARTCHAR space
ENCODING 160
SWIDTH 250 0
DWIDTH 8 0
BBX 0 0 0 0
BITMAP
ENDCHAR

STARTCHAR afii10023
ENCODING 161
SWIDTH 719 0
DWIDTH 18 0
BBX 17 23 0 0
BITMAP
0F3C00
0F3C00
061800
000000
FFFF00
1E0F00
1E0700
1E0300
1E0100
1E1100
1E1100
1E3000
1E7000
1FF000
1E7000
1E3000
1E1180
1E1180
1E0180
1E0180
1E0380
1E0F80
FFFF80
ENDCHAR

STARTCHAR afii10051
ENCODING 162
SWIDTH 927 0
DWIDTH 23 0
BBX 22 19 1 0
BITMAP
FFFF80
E3C780
C3C380
C3C180
83C180
03C000
03C000
03C7E0
03DFF0
03F0F8
03C078
03C07C
03C07C
03C07C
03C07C
03C078
03C078
03E3F0
0FF1E0
ENDCHAR

STARTCHAR afii10052
ENCODING 163
SWIDTH 687 0
DWIDTH 17 0
BBX 16 24 0 0
BITMAP
00F0
01E0
03C0
0000
0000
FFFF
1E1F
1E07
1E03
1E03
1E03
1E00
1E00
1E00
1E00
1E00
1E00
1E00
1E00
1E00
1E00
1E00
1E00
FFE0
ENDCHAR

STARTCHAR afii10053
ENCODING 164
SWIDTH 750 0
DWIDTH 19 0
BBX 17 19 1 0
BITMAP
03FC00
0F0F00
1E0700
3C0300
7C0300
7C0100
780100
F80000
F80000
FFF000
F80000
F80000
780000
780180
7C0100
3C0300
1F0E00
0FFC00
03F000
ENDCHAR

STARTCHAR afii10054
ENCODING 165
SWIDTH 646 0
DWIDTH 16 0
BBX 14 19 1 0
BITMAP
1FE0
3878
7038
F018
F018
F808
FC00
7F00
3FE0
1FF0
07F8
01FC
C07C
C03C
C03C
C03C
E078
F8F0
3FC0
ENDCHAR

STARTCHAR afii10055
ENCODING 166
SWIDTH 448 0
DWIDTH 11 0
BBX 10 19 1 0
BITMAP
FFC0
1E00
1E00
1E00
1E00
1E00
1E00
1E00
1E00
1E00
1E00
1E00
1E00
1E00
1E00
1E00
1E00
1E00
FFC0
ENDCHAR

STARTCHAR afii10056
ENCODING 167
SWIDTH 448 0
DWIDTH 11 0
BBX 10 24 1 0
BITMAP
F3C0
F3C0
F3C0
0000
0000
FFC0
1E00
1E00
1E00
1E00
1E00
1E00
1E00
1E00
1E00
1E00
1E00
1E00
1E00
1E00
1E00
1E00
1E00
FFC0
ENDCHAR

STARTCHAR afii10057
ENCODING 168
SWIDTH 635 0
DWIDTH 16 0
BBX 15 19 1 0
BITMAP
07FE
00F0
00F0
00F0
00F0
00F0
00F0
00F0
00F0
00F0
00F0
20F0
70F0
F8F0
F8F0
F0F0
60E0
71E0
1F80
ENDCHAR

STARTCHAR afii10058
ENCODING 169
SWIDTH 1164 0
DWIDTH 29 0
BBX 29 19 0 0
BITMAP
0FFFF800
03C3E000
0183C000
0183C000
0183C000
0183C000
0183C000
0183C000
0103C000
0103FFC0
0103C3E0
0303C1F0
0303C0F8
0303C0F8
6303C0F8
F203C0F8
FA03C1F0
7C1FE3E0
381FFFC0
ENDCHAR

STARTCHAR afii10059
ENCODING 170
SWIDTH 1171 0
DWIDTH 29 0
BBX 28 19 1 0
BITMAP
FF9FF000
1E07C000
1E078000
1E078000
1E078000
1E078000
1E078000
1E078000
1E078000
1FFFFF80
1E0787E0
1E0781E0
1E0781F0
1E0781F0
1E0781F0
1E0781F0
1E0783E0
1E0787C0
FF9FFF80
ENDCHAR

STARTCHAR afii10060
ENCODING 171
SWIDTH 946 0
DWIDTH 24 0
BBX 22 19 1 0
BITMAP
FFFF00
F3C700
C3C380
83C180
83C180
03C000
03C000
03CFE0
03DFE0
03F1F0
03C0F0
03C0F0
03C0F0
03C0F0
03C0F0
03C0F0
03C0F0
03C0F0
0FF3FC
ENDCHAR

STARTCHAR afii10061
ENCODING 172
SWIDTH 831 0
DWIDTH 21 0
BBX 20 24 0 0
BITMAP
000C00
001C00
003C00
006000
000000
FFC1E0
3E03E0
1E03E0
1E06E0
1E0600
1E0400
1E0C00
1E0800
1E1800
1FF000
1FFC00
1E1E00
1E1F00
1E0F00
1E0F80
1E0780
1E07C0
1E03C0
FFC3F0
ENDCHAR

STARTCHAR hyphen
ENCODING 173
SWIDTH 323 0
DWIDTH 8 0
BBX 6 3 1 5
BITMAP
FC
FC
FC
ENDCHAR

STARTCHAR afii10062
ENCODING 174
SWIDTH 748 0
DWIDTH 19 0
BBX 19 25 0 0
BITMAP
070E00
070E00
070E00
01F800
000000
000000
FF87E0
7E01C0
3E0180
1E0100
1F0300
0F0200
0F8600
078400
07CC00
03CC00
03E800
01F800
01F000
01F000
38E000
38E000
384000
3DC000
1F0000
ENDCHAR

STARTCHAR afii10145
ENCODING 175
SWIDTH 865 0
DWIDTH 22 0
BBX 21 23 0 -4
BITMAP
FFDFF8
1E07C0
1E03C0
1E03C0
1E03C0
1E03C0
1E03C0
1E03C0
1E03C0
1E03C0
1E03C0
1E03C0
1E03C0
1E03C0
1E03C0
1E03C0
1E03C0
3E03C0
FFFFF8
01FC00
007000
007000
002000
ENDCHAR

STARTCHAR afii10017
ENCODING 176
SWIDTH 854 0
DWIDTH 21 0
BBX 20 19 1 0
BITMAP
006000
00E000
00F000
00F000
01F800
017800
037800
037C00
063C00
063E00
041E00
0C1E00
081F00
1FFF00
180F80
300780
300780
7807C0
FE1FF0
ENDCHAR

STARTCHAR afii10018
ENCODING 177
SWIDTH 792 0
DWIDTH 20 0
BBX 19 19 0 0
BITMAP
FFFF80
1F0F80
1E0380
1E0380
1E0180
1E0180
1E0080
1E0000
1E0000
1FFF00
1E0FC0
1E03C0
1E03E0
1E03E0
1E03E0
1E03E0
1E07C0
1E0F80
FFFF00
ENDCHAR

STARTCHAR afii10019
ENCODING 178
SWIDTH 792 0
DWIDTH 20 0
BBX 18 19 1 0
BITMAP
FFFE00
1E1F00
1E0F80
1E0780
1E0780
1E0780
1E0780
1E0F00
1E1600
1FF800
1E1F00
1E0780
1E07C0
1E07C0
1E07C0
1E07C0
1E0780
1E1F00
FFFE00
ENDCHAR

STARTCHAR afii10020
ENCODING 179
SWIDTH 687 0
DWIDTH 17 0
BBX 16 19 0 0
BITMAP
FFFF
1E1F
1E07
1E03
1E03
1E03
1E00
1E00
1E00
1E00
1E00
1E00
1E00
1E00
1E00
1E00
1E00
1E00
FFE0
ENDCHAR

STARTCHAR afii10021
ENCODING 180
SWIDTH 813 0
DWIDTH 20 0
BBX 20 23 0 -4
BITMAP
0FFFF0
038780
030780
030780
030780
030780
030780
030780
030780
030780
020780
020780
060780
060780
040780
0C0780
180780
300780
FFFFF0
F000F0
E00070
C00030
C00030
ENDCHAR

STARTCHAR afii10022
ENCODING 181
SWIDTH 719 0
DWIDTH 18 0
BBX 17 19 0 0
BITMAP
FFFF00
1E0F00
1E0700
1E0300
1E0100
1E1100
1E1100
1E3000
1E7000
1FF000
1E7000
1E3000
1E1180
1E1180
1E0180
1E0180
1E0380
1E0F80
FFFF80
ENDCHAR

STARTCHAR afii10024
ENCODING 182
SWIDTH 1189 0
DWIDTH 30 0
BBX 30 19 0 0
BITMAP
3C3FF0F0
3E0781F0
3E0781F0
3F0783F0
03078300
01078200
01878600
01878600
00C78C00
007FF800
03FFFF00
07C78F80
07878780
0F8787C0
0F0783C0
1F0783E0
1E0781E0
3E0781F0
FE3FF1FC
ENDCHAR

STARTCHAR afii10025
ENCODING 183
SWIDTH 689 0
DWIDTH 17 0
BBX 15 19 1 0
BITMAP
1FF0
3C7C
303E
701E
601E
601E
003E
007C
07C0
07F8
007C
003E
001E
001E
C01E
403E
707C
3FF8
0FE0
ENDCHAR

STARTCHAR afii10026
ENCODING 184
SWIDTH 880 0
DWIDTH 22 0
BBX 21 19 1 0
BITMAP
FF8FF8
1E03C0
1E03C0
1E07C0
1E07C0
1E0DC0
1E1BC0
1E1BC0
1E33C0
1E23C0
1E63C0
1EC3C0
1EC3C0
1F83C0
1F03C0
1F03C0
1E03C0
1E03C0
FF8FF8
ENDCHAR

STARTCHAR afii10027
ENCODING 185
SWIDTH 880 0
DWIDTH 22 0
BBX 21 25 0 0
BITMAP
038700
038700
038700
00FC00
000000
000000
FF8FF8
1E03C0
1E03C0
1E07C0
1E07C0
1E0DC0
1E1BC0
1E1BC0
1E33C0
1E23C0
1E63C0
1EC3C0
1EC3C0
1F83C0
1F03C0
1F03C0
1E03C0
1E03C0
FF8FF8
ENDCHAR

STARTCHAR afii10028
ENCODING 186
SWIDTH 831 0
DWIDTH 21 0
BBX 20 19 0 0
BITMAP
FFC1E0
3E03E0
1E03E0
1E06E0
1E0600
1E0400
1E0C00
1E0800
1E1800
1FF000
1FFC00
1E1E00
1E1F00
1E0F00
1E0F80
1E0780
1E07C0
1E03C0
FFC3F0
ENDCHAR

STARTCHAR afii10029
ENCODING 187
SWIDTH 844 0
DWIDTH 21 0
BBX 20 19 1 0
BITMAP
0FFFF0
078780
030780
030780
030780
030780
030780
030780
020780
020780
020780
020780
020780
020780
E60780
E40780
FC0780
F80780
703FF0
ENDCHAR

STARTCHAR afii10030
ENCODING 188
SWIDTH 1052 0
DWIDTH 26 0
BBX 25 19 1 0
BITMAP
FF00FF80
3700DE00
3780BC00
3781BC00
3781BC00
33C13C00
33C33C00
33E33C00
31E23C00
31E63C00
31F63C00
30F43C00
30FC3C00
30FC3C00
30783C00
30783C00
30383C00
78303C00
FE31FF80
ENDCHAR

STARTCHAR afii10031
ENCODING 189
SWIDTH 865 0
DWIDTH 22 0
BBX 21 19 0 0
BITMAP
FFDFF8
1E03C0
1E03C0
1E03C0
1E03C0
1E03C0
1E03C0
1E03C0
1FFFC0
1FFFC0
1E03C0
1E03C0
1E03C0
1E03C0
1E03C0
1E03C0
1E03C0
1E03C0
FFDFF8
ENDCHAR

STARTCHAR afii10032
ENCODING 190
SWIDTH 823 0
DWIDTH 21 0
BBX 18 19 1 0
BITMAP
07F800
0F3C00
3C0E00
3C0F00
780780
780780
780780
F807C0
F807C0
F807C0
F807C0
F807C0
7807C0
780780
780780
3C0F00
1C0E00
0F3C00
07F800
ENDCHAR

STARTCHAR afii10033
ENCODING 191
SWIDTH 865 0
DWIDTH 22 0
BBX 21 19 0 0
BITMAP
FFFFF8
1E03E0
1E03C0
1E03C0
1E03C0
1E03C0
1E03C0
1E03C0
1E03C0
1E03C0
1E03C0
1E03C0
1E03C0
1E03C0
1E03C0
1E03C0
1E03C0
1E03C0
FFDFF8
ENDCHAR

STARTCHAR afii10034
ENCODING 192
SWIDTH 729 0
DWIDTH 18 0
BBX 17 19 1 0
BITMAP
FFFC00
1E3E00
1E0F00
1E0F80
1E0F80
1E0F80
1E0F80
1E0F00
1E3E00
1FFC00
1E0000
1E0000
1E0000
1E0000
1E0000
1E0000
1E0000
3E0000
FFC000
ENDCHAR

STARTCHAR afii10035
ENCODING 193
SWIDTH 750 0
DWIDTH 19 0
BBX 17 19 1 0
BITMAP
03FC00
0F0F00
1E0700
3C0300
7C0300
780100
780100
F80000
F80000
F80000
F80000
F80000
F80180
780180
7C0300
3E0700
1F0E00
0FFC00
03F000
ENDCHAR

STARTCHAR afii10036
ENCODING 194
SWIDTH 729 0
DWIDTH 18 0
BBX 18 19 0 0
BITMAP
7FFF80
71E380
61E180
C1E0C0
C1E0C0
C1E0C0
C1E0C0
01E000
01E000
01E000
01E000
01E000
01E000
01E000
01E000
01E000
01E000
01E000
0FFC00
ENDCHAR

STARTCHAR afii10037
ENCODING 195
SWIDTH 748 0
DWIDTH 19 0
BBX 19 19 0 0
BITMAP
FF87E0
7E0380
3E0100
1E0300
1F0300
0F0600
0F8600
078400
07CC00
03C800
03D800
01F800
01F000
00F000
18E000
3C6000
3C4000
3CC000
1F8000
ENDCHAR

STARTCHAR afii10038
ENCODING 196
SWIDTH 934 0
DWIDTH 23 0
BBX 20 19 2 0
BITMAP
07FE00
00F000
00F000
1FFF80
3CF3C0
78F1E0
F0F0F0
F0F0F0
F0F0F0
F0F0F0
F0F0F0
F0F0F0
F8F0F0
78F1E0
3CF3C0
1FFF80
00F000
00F000
07FE00
ENDCHAR

STARTCHAR afii10039
ENCODING 197
SWIDTH 802 0
DWIDTH 20 0
BBX 20 19 0 0
BITMAP
FFCFE0
3E07C0
1F0300
1F0600
0F8600
07CC00
07D800
03F000
01F000
01F800
00F800
01FC00
033E00
063E00
061F00
0C0F80
1C0780
3C0FC0
FF3FF0
ENDCHAR

STARTCHAR afii10040
ENCODING 198
SWIDTH 882 0
DWIDTH 22 0
BBX 21 23 0 -4
BITMAP
FFDFF8
1E07C0
1E03C0
1E03C0
1E03C0
1E03C0
1E03C0
1E03C0
1E03C0
1E03C0
1E03C0
1E03C0
1E03C0
1E03C0
1E03C0
1E03C0
1E03C0
3E03E0
FFFFF8
000078
000038
000018
000008
ENDCHAR

STARTCHAR afii10041
ENCODING 199
SWIDTH 817 0
DWIDTH 20 0
BBX 19 19 1 0
BITMAP
FF9FE0
3E0780
3C0780
3C0780
3C0780
3C0780
3C0780
3C0780
3E0F80
1E1F80
1FF780
07C780
000780
000780
000780
000780
000780
000F80
001FE0
ENDCHAR

STARTCHAR afii10042
ENCODING 200
SWIDTH 1133 0
DWIDTH 28 0
BBX 27 19 1 0
BITMAP
FE3F9FE0
3C1F0780
3C1E0780
3C1E0780
3C1E0780
3C1E0780
3C1E0780
3C1E0780
3C1E0780
3C1E0780
3C1E0780
3C1E0780
3C1E0780
3C1E0780
3C1E0780
3C1E0780
3C1E0780
3C1E0780
FFFFFFE0
ENDCHAR

STARTCHAR afii10043
ENCODING 201
SWIDTH 1153 0
DWIDTH 29 0
BBX 27 23 1 -4
BITMAP
FE3F9FE0
3C1F0780
3C1E0780
3C1E0780
3C1E0780
3C1E0780
3C1E0780
3C1E0780
3C1E0780
3C1E0780
3C1E0780
3C1E0780
3C1E0780
3C1E0780
3C1E0780
3C1E0780
3C1E0780
3C1E07C0
FFFFFFE0
000001E0
00000060
00000020
00000020
ENDCHAR

STARTCHAR afii10044
ENCODING 202
SWIDTH 937 0
DWIDTH 23 0
BBX 23 19 0 0
BITMAP
7FFC00
79F000
61E000
E1E000
C1E000
C1E000
C1E000
01E000
01E000
01FFF0
01E0FC
01E03C
01E03E
01E03E
01E03E
01E03E
01E07C
01F0F8
0FFFF0
ENDCHAR

STARTCHAR afii10045
ENCODING 203
SWIDTH 1177 0
DWIDTH 29 0
BBX 29 19 0 0
BITMAP
FFC01FF8
1F0003E0
1E0003C0
1E0003C0
1E0003C0
1E0003C0
1E0003C0
1E0003C0
1E0003C0
1FFF03C0
1E0FC3C0
1E03C3C0
1E03E3C0
1E03E3C0
1E03E3C0
1E03E3C0
1E07C3C0
1E0F83C0
FFFF1FF8
ENDCHAR

STARTCHAR afii10046
ENCODING 204
SWIDTH 781 0
DWIDTH 20 0
BBX 19 19 0 0
BITMAP
FFC000
1F0000
1E0000
1E0000
1E0000
1E0000
1E0000
1E0000
1E0000
1FFF00
1E0FC0
1E03C0
1E03E0
1E03E0
1E03E0
1E03E0
1E07C0
3F0F80
FFFF00
ENDCHAR

STARTCHAR afii10047
ENCODING 205
SWIDTH 750 0
DWIDTH 19 0
BBX 17 19 1 0
BITMAP
1FE000
787800
703C00
601E00
600F00
600F00
400F80
000F80
000F80
03FF80
000F80
000F80
000F80
C00F00
601F00
601E00
387E00
1FF800
07E000
ENDCHAR

STARTCHAR afii10048
ENCODING 206
SWIDTH 1219 0
DWIDTH 30 0
BBX 29 19 0 0
BITMAP
FFC0FF00
1E03C380
1E0781C0
1E0F01E0
1E0F00F0
1E1F00F0
1E1F00F8
1E1F00F8
1E1E00F8
1FFE00F8
1E1E00F8
1E1F00F8
1E1F00F8
1E1F00F0
1E0F00F0
1E0F01E0
1E0781C0
1F03C780
FFC0FF00
ENDCHAR

STARTCHAR afii10049
ENCODING 207
SWIDTH 802 0
DWIDTH 20 0
BBX 20 19 0 0
BITMAP
07FFF0
0F8780
1F0780
1E0780
1E0780
1E0780
1F0780
0F0780
078780
01FF80
03C780
078780
0F8780
0F0780
1F0780
1F0780
1E0780
3E0780
FC3FF0
ENDCHAR

STARTCHAR afii10065
ENCODING 208
SWIDTH 615 0
DWIDTH 15 0
BBX 14 14 1 0
BITMAP
1FC0
39E0
70F0
70F0
70F0
00F0
1FF0
7CF0
70F0
F0F0
F0F0
F1F0
7F7C
3C38
ENDCHAR

STARTCHAR afii10066
ENCODING 209
SWIDTH 615 0
DWIDTH 15 0
BBX 14 20 1 0
BITMAP
000C
0FFC
1FF8
3FF0
7000
6000
4FC0
DCF0
D878
B038
F03C
F03C
F03C
F03C
F03C
703C
7838
7878
3CF0
0FC0
ENDCHAR

STARTCHAR afii10067
ENCODING 210
SWIDTH 646 0
DWIDTH 16 0
BBX 15 14 1 0
BITMAP
FFF0
3C78
3C3C
3C3C
3C3C
3C58
3FE0
3C3C
3C3E
3C1E
3C1E
3C3E
3C3C
FFF8
ENDCHAR

STARTCHAR afii10068
ENCODING 211
SWIDTH 577 0
DWIDTH 14 0
BBX 13 14 1 0
BITMAP
FFF8
3C38
3C18
3C18
3C08
3C00
3C00
3C00
3C00
3C00
3C00
3C00
3C00
FF00
ENDCHAR

STARTCHAR afii10069
ENCODING 212
SWIDTH 662 0
DWIDTH 17 0
BBX 16 18 0 -4
BITMAP
1FFF
0E3C
063C
043C
043C
043C
043C
043C
0C3C
083C
083C
183C
303C
FFFF
E007
C003
C001
8001
ENDCHAR

STARTCHAR afii10070
ENCODING 213
SWIDTH 562 0
DWIDTH 14 0
BBX 13 14 1 0
BITMAP
1F80
38E0
78E0
7070
F070
F070
FFF8
F000
F000
F000
7830
7860
3FC0
0F00
ENDCHAR

STARTCHAR afii10072
ENCODING 214
SWIDTH 936 0
DWIDTH 23 0
BBX 22 14 1 0
BITMAP
F1FE38
F8787C
E8787C
4C78CC
047880
047880
027900
0FFFC0
0E79C0
1E79E0
3C78F0
3C78F0
787878
F1FE3C
ENDCHAR

STARTCHAR afii10073
ENCODING 215
SWIDTH 531 0
DWIDTH 13 0
BBX 11 14 1 0
BITMAP
3F80
63C0
61E0
41E0
41E0
03C0
0E00
07C0
01E0
E1E0
E1E0
E1E0
63C0
3F80
ENDCHAR

STARTCHAR afii10074
ENCODING 216
SWIDTH 708 0
DWIDTH 18 0
BBX 16 14 1 0
BITMAP
FE7F
3C3C
3C3C
3C3C
3C5C
3CDC
3CBC
3D3C
3F3C
3C3C
3E3C
3C3C
3C3C
FE7F
ENDCHAR

STARTCHAR afii10075
ENCODING 217
SWIDTH 708 0
DWIDTH 18 0
BBX 17 20 0 0
BITMAP
061800
061800
061800
03F000
000000
000000
FF7F80
3C1E00
3C1E00
3C3E00
3C2E00
3C5E00
3CDE00
3D9E00
3D1E00
3F1E00
3E1E00
3C1E00
3C1E00
FF7F80
ENDCHAR

STARTCHAR afii10076
ENCODING 218
SWIDTH 677 0
DWIDTH 17 0
BBX 16 14 1 0
BITMAP
FF0E
3C1F
3C3F
3C26
3C20
3C60
3C80
3FE0
3CF0
3C78
3C78
3C3C
3C1E
FF1F
ENDCHAR

STARTCHAR afii10077
ENCODING 219
SWIDTH 698 0
DWIDTH 17 0
BBX 17 14 0 0
BITMAP
1FFF80
061E00
061E00
061E00
061E00
061E00
061E00
061E00
061E00
061E00
641E00
F41E00
FC1E00
707F80
ENDCHAR

STARTCHAR afii10078
ENCODING 220
SWIDTH 854 0
DWIDTH 21 0
BBX 20 14 1 0
BITMAP
FE07F0
2E05C0
2F0DC0
2F0BC0
270BC0
2793C0
2793C0
23B3C0
23E3C0
23E3C0
21E3C0
21C3C0
21C3C0
F88FF0
ENDCHAR

STARTCHAR afii10079
ENCODING 221
SWIDTH 713 0
DWIDTH 18 0
BBX 17 14 0 0
BITMAP
FF7F80
3C1E00
3C1E00
3C1E00
3C1E00
3C1E00
3FFE00
3C1E00
3C1E00
3C1E00
3C1E00
3C1E00
3C1E00
FF7F80
ENDCHAR

STARTCHAR afii10080
ENCODING 222
SWIDTH 614 0
DWIDTH 15 0
BBX 14 14 1 0
BITMAP
0FC0
3CF0
7878
7038
F03C
F03C
F03C
F03C
F03C
F03C
7838
7878
3CF0
0FC0
ENDCHAR

STARTCHAR afii10081
ENCODING 223
SWIDTH 708 0
DWIDTH 18 0
BBX 17 14 0 0
BITMAP
FFFF80
3C1E00
3C1E00
3C1E00
3C1E00
3C1E00
3C1E00
3C1E00
3C1E00
3C1E00
3C1E00
3C1E00
3C1E00
FF7F80
ENDCHAR

STARTCHAR afii10082
ENCODING 224
SWIDTH 656 0
DWIDTH 16 0
BBX 15 18 1 -4
BITMAP
F8F0
FDF8
3E3C
3C3C
3C1E
3C1E
3C1E
3C1E
3C1E
3C1E
3C3C
3E3C
3DF8
3CF0
3C00
3C00
3C00
FF80
ENDCHAR

STARTCHAR afii10083
ENCODING 225
SWIDTH 542 0
DWIDTH 14 0
BBX 12 14 1 0
BITMAP
1FC0
3CE0
7870
70F0
F0E0
F000
F000
F000
F000
F000
7830
7860
3FC0
0F80
ENDCHAR

STARTCHAR afii10084
ENCODING 226
SWIDTH 598 0
DWIDTH 15 0
BBX 14 14 1 0
BITMAP
FFFC
E79C
C78C
C78C
8784
0780
0780
0780
0780
0780
0780
0780
0780
1FE0
ENDCHAR

STARTCHAR afii10085
ENCODING 227
SWIDTH 594 0
DWIDTH 15 0
BBX 15 18 0 -4
BITMAP
FF3E
7C1C
3C08
1E18
1E10
0F30
0F20
0F20
07C0
07C0
03C0
0380
0180
0100
7100
7200
7600
3800
ENDCHAR

STARTCHAR afii10086
ENCODING 228
SWIDTH 823 0
DWIDTH 21 0
BBX 19 23 1 -4
BITMAP
03E000
00E000
00E000
00E000
00E000
1CEF00
3F6F80
79F3C0
70E1C0
F0E1E0
F0E1E0
F0E1E0
F0E1E0
F0E1E0
F0E1E0
70E1C0
79F3C0
3EEF80
1CE700
00E000
00E000
00E000
03F800
ENDCHAR

STARTCHAR afii10087
ENCODING 229
SWIDTH 646 0
DWIDTH 16 0
BBX 15 14 1 0
BITMAP
FE7C
7C18
3C30
3E60
1FC0
0F80
0780
07C0
07E0
09E0
18F0
3078
70FC
F9FE
ENDCHAR

STARTCHAR afii10088
ENCODING 230
SWIDTH 711 0
DWIDTH 18 0
BBX 17 18 0 -4
BITMAP
FF7F80
3C1E00
3C1E00
3C1E00
3C1E00
3C1E00
3C1E00
3C1E00
3C1E00
3C1E00
3C1E00
3C1E00
3C1F00
FFFF80
000380
000180
000080
000080
ENDCHAR

STARTCHAR afii10089
ENCODING 231
SWIDTH 698 0
DWIDTH 17 0
BBX 16 14 1 0
BITMAP
FE7F
3C3C
3C3C
3C3C
3C3C
3C3C
3C7C
1FDC
0F3C
003C
003C
003C
003C
007F
ENDCHAR

STARTCHAR afii10090
ENCODING 232
SWIDTH 1047 0
DWIDTH 26 0
BBX 24 14 1 0
BITMAP
FEFEFF
3C3C3C
3C3C3C
3C3C3C
3C3C3C
3C3C3C
3C3C3C
3C3C3C
3C3C3C
3C3C3C
3C3C3C
3C3C3C
3C3C3C
FFFFFF
ENDCHAR

STARTCHAR afii10091
ENCODING 233
SWIDTH 1055 0
DWIDTH 26 0
BBX 24 18 1 -4
BITMAP
FEFEFF
3C3C3C
3C3C3C
3C3C3C
3C3C3C
3C3C3C
3C3C3C
3C3C3C
3C3C3C
3C3C3C
3C3C3C
3C3C3C
3C3C3C
FFFFFF
000007
000001
000001
000001
ENDCHAR

STARTCHAR afii10092
ENCODING 234
SWIDTH 740 0
DWIDTH 18 0
BBX 17 14 0 0
BITMAP
FFE000
E78000
C78000
C78000
878000
078000
07FE00
078F00
078780
078780
078780
078780
078F00
1FFE00
ENDCHAR

STARTCHAR afii10093
ENCODING 235
SWIDTH 948 0
DWIDTH 24 0
BBX 22 14 1 0
BITMAP
FF03FC
3C00F0
3C00F0
3C00F0
3C00F0
3C00F0
3FF0F0
3C78F0
3C3CF0
3C3CF0
3C3CF0
3C3CF0
3C78F0
FFF3FC
ENDCHAR

STARTCHAR afii10094
ENCODING 236
SWIDTH 635 0
DWIDTH 16 0
BBX 15 14 0 0
BITMAP
FF00
3C00
3C00
3C00
3C00
3C00
3FF8
3C3C
3C1E
3C1E
3C1E
3C1E
3C7C
FFF8
ENDCHAR

STARTCHAR afii10095
ENCODING 237
SWIDTH 567 0
DWIDTH 14 0
BBX 12 14 1 0
BITMAP
3F80
71C0
60E0
C0F0
C0F0
00F0
0FF0
00F0
40F0
E0F0
E0E0
E1E0
73C0
3F80
ENDCHAR

STARTCHAR afii10096
ENCODING 238
SWIDTH 935 0
DWIDTH 23 0
BBX 22 14 1 0
BITMAP
FF0FC0
3C3CF0
3C3878
3C7838
3C783C
3C703C
3CF03C
3FF03C
3CF03C
3C783C
3C7838
3C3878
3C3C70
FF0FC0
ENDCHAR

STARTCHAR afii10097
ENCODING 239
SWIDTH 669 0
DWIDTH 17 0
BBX 15 14 1 0
BITMAP
1FFE
3C78
7878
7878
7878
7878
3C78
17F8
1E78
1C78
3C78
3878
7878
F9FE
ENDCHAR

STARTCHAR afii61352
ENCODING 240
SWIDTH 1115 0
DWIDTH 28 0
BBX 27 20 0 0
BITMAP
0000F000
3F01F800
0F81F800
0F81B800
0FC10000
0FC10000
0DE10F80
0DF11DC0
0DF138E0
0CF938E0
0CFD38E0
0C7D38E0
0C3F38E0
0C3F38E0
0C1F1DC0
0C1F0700
4C0F0000
FC070000
F8071FC0
70031FC0
ENDCHAR

STARTCHAR afii10071
ENCODING 241
SWIDTH 562 0
DWIDTH 14 0
BBX 12 19 1 0
BITMAP
38E0
38E0
38E0
0000
0000
1F80
39E0
70E0
70F0
F070
F070
FFF0
F000
F000
F000
7830
7860
3FC0
0F00
ENDCHAR

STARTCHAR afii10099
ENCODING 242
SWIDTH 646 0
DWIDTH 16 0
BBX 15 23 0 -4
BITMAP
FC00
7C00
3C00
FFF0
3C00
3CF0
3DFC
3F3C
3E3E
3C1E
3C1E
3C1E
3C1E
3C1E
3C1E
3C1E
3C1E
3C1C
FF1C
003C
0038
0070
01E0
ENDCHAR

STARTCHAR afii10100
ENCODING 243
SWIDTH 581 0
DWIDTH 15 0
BBX 13 20 1 0
BITMAP
00C0
01E0
03C0
0700
0000
0000
FFF8
3C38
3C18
3C18
3C08
3C00
3C00
3C00
3C00
3C00
3C00
3C00
3C00
FF00
ENDCHAR

STARTCHAR afii10101
ENCODING 244
SWIDTH 552 0
DWIDTH 14 0
BBX 12 14 1 0
BITMAP
1FC0
3C60
78F0
70F0
F060
F000
FF80
F000
F000
F010
7830
7C60
3FC0
0F80
ENDCHAR

STARTCHAR afii10102
ENCODING 245
SWIDTH 500 0
DWIDTH 13 0
BBX 11 14 1 0
BITMAP
3F80
71C0
E0C0
E040
F000
FE00
7F80
3FC0
0FE0
81E0
C0E0
C0E0
F1C0
7F80
ENDCHAR

STARTCHAR afii10103
ENCODING 246
SWIDTH 396 0
DWIDTH 10 0
BBX 8 19 1 0
BITMAP
30
78
78
30
00
00
FC
3C
3C
3C
3C
3C
3C
3C
3C
3C
3C
3C
FF
ENDCHAR

STARTCHAR afii10104
ENCODING 247
SWIDTH 396 0
DWIDTH 10 0
BBX 8 19 1 0
BITMAP
E7
E7
E7
00
00
3C
FC
3C
3C
3C
3C
3C
3C
3C
3C
3C
3C
3C
FF
ENDCHAR

STARTCHAR afii10105
ENCODING 248
SWIDTH 375 0
DWIDTH 9 0
BBX 9 23 -2 -4
BITMAP
0300
0780
0780
0300
0000
0000
1F80
0780
0780
0780
0780
0780
0780
0780
0780
0780
0780
0780
0780
0700
6700
F600
7C00
ENDCHAR

STARTCHAR afii10106
ENCODING 249
SWIDTH 967 0
DWIDTH 24 0
BBX 23 14 0 0
BITMAP
1FFF80
061E00
061E00
061E00
061E00
061E00
061FF8
061E3C
061E1E
041E1E
641E1E
EC1E1E
F87E3C
707FF8
ENDCHAR

STARTCHAR afii10107
ENCODING 250
SWIDTH 969 0
DWIDTH 24 0
BBX 23 14 0 0
BITMAP
FF7F80
3C1E00
3C1E00
3C1E00
3C1E00
3C1E00
3FFFF8
3C1E3C
3C1E1E
3C1E1E
3C1E1E
3C1E1E
3C1E3C
FF7FF8
ENDCHAR

STARTCHAR afii10108
ENCODING 251
SWIDTH 708 0
DWIDTH 18 0
BBX 17 19 0 0
BITMAP
FC0000
7C0000
3C0000
FFF000
3C0000
3C7800
3DFC00
3D3E00
3E1E00
3C1E00
3C1E00
3C1E00
3C1E00
3C1E00
3C1E00
3C1E00
3C1E00
3C1E00
FF7F80
ENDCHAR

STARTCHAR afii10109
ENCODING 252
SWIDTH 677 0
DWIDTH 17 0
BBX 16 19 1 0
BITMAP
00E0
01E0
03C0
0200
0000
FF0E
3C1F
3C3F
3C26
3C20
3C60
3C80
3FE0
3CF0
3C78
3C78
3C3C
3C1E
FF1F
ENDCHAR

STARTCHAR section
ENCODING 253
SWIDTH 531 0
DWIDTH 13 0
BBX 12 23 1 -4
BITMAP
0FC0
38E0
70E0
70E0
7840
7C00
1F00
3F80
6FC0
63E0
E1F0
F0F0
F870
7E60
3F60
1F80
0FC0
03E0
21E0
70E0
70E0
79C0
3F00
ENDCHAR

STARTCHAR afii10110
ENCODING 254
SWIDTH 594 0
DWIDTH 15 0
BBX 15 24 0 -4
BITMAP
0430
0C30
0C30
07E0
0000
0000
FE3E
7C0C
3C18
1C10
1E10
1E30
0F20
0F60
07C0
07C0
0380
0380
0300
0100
7200
7200
7C00
3800
ENDCHAR

STARTCHAR afii10193
ENCODING 255
SWIDTH 708 0
DWIDTH 18 0
BBX 17 18 0 -4
BITMAP
FF7F80
3C1E00
3C1E00
3C1E00
3C1E00
3C1E00
3C1E00
3C1E00
3C1E00
3C1E00
3C1E00
3C1E00
3C1E00
FFFF80
03E000
01C000
008000
008000
ENDCHAR
ENDFONT
